<svg width="345" height="82" viewBox="0 0 345 82" fill="none" xmlns="http://www.w3.org/2000/svg">
<g filter="url(#filter0_d_2_39)">
<path d="M7.2793 72C5.65169 72 4.83789 71.1048 4.83789 69.3145V4.66602C4.83789 2.87565 5.65169 1.98047 7.2793 1.98047H13.5293C15.8079 1.98047 17.4355 2.79427 18.4121 4.42188L48.9785 55.6426H49.1738C49.1087 54.3405 49.0762 53.0384 49.0762 51.7363V4.66602C49.0762 2.87565 49.89 1.98047 51.5176 1.98047H56.0098C57.6374 1.98047 58.4512 2.87565 58.4512 4.66602V69.3145C58.4512 71.1048 57.6374 72 56.0098 72H51.7129C49.4342 72 47.8066 71.1862 46.8301 69.5586L14.3105 15.2129H14.1152C14.1803 16.515 14.2129 17.8171 14.2129 19.1191V69.3145C14.2129 71.1048 13.3991 72 11.7715 72H7.2793ZM71.5371 72C69.8444 72 69.4049 70.9258 70.2188 68.7773L94.5352 4.95898C95.2839 2.97331 96.3581 1.98047 97.7578 1.98047H104.594C105.993 1.98047 107.068 2.97331 107.816 4.95898L132.133 68.7773C132.947 70.9258 132.507 72 130.814 72H125.834C124.109 72 122.937 71.2025 122.318 69.6074L116.215 53.4453H86.1367L80.0332 69.6074C79.4147 71.2025 78.2428 72 76.5176 72H71.5371ZM89.2129 45.4375H113.139L105.668 25.9062C104.984 24.0833 104.301 22.0651 103.617 19.8516C102.966 17.638 102.185 14.4967 101.273 10.4277H101.078C100.167 14.4967 99.3691 17.638 98.6855 19.8516C98.0345 22.0651 97.3672 24.0833 96.6836 25.9062L89.2129 45.4375ZM137.65 36.9902C137.65 25.597 140.466 16.6777 146.098 10.2324C151.762 3.75456 159.883 0.515625 170.463 0.515625C176.648 0.515625 181.758 1.57357 185.795 3.68945C189.831 5.77279 192.729 8.63737 194.486 12.2832C195.398 14.1712 195.251 15.4733 194.047 16.1895L190.189 18.4355C188.887 19.1842 187.732 18.5658 186.723 16.5801C185.648 14.5293 183.891 12.6087 181.449 10.8184C179.008 9.02799 175.508 8.13281 170.951 8.13281C162.813 8.13281 156.889 10.6719 153.178 15.75C149.499 20.7956 147.66 27.8757 147.66 36.9902C147.66 46.1048 149.499 53.2012 153.178 58.2793C156.889 63.3249 162.813 65.8477 170.951 65.8477C175.639 65.8477 179.382 64.7734 182.182 62.625C185.014 60.4766 187.064 58.2305 188.334 55.8867C189.343 53.9987 190.515 53.429 191.85 54.1777L195.902 56.4727C197.074 57.1562 197.172 58.4583 196.195 60.3789C194.275 64.1224 191.15 67.2474 186.82 69.7539C182.491 72.2279 177.038 73.4648 170.463 73.4648C159.883 73.4648 151.762 70.2422 146.098 63.7969C140.466 57.319 137.65 48.3835 137.65 36.9902ZM212.357 72C210.73 72 209.916 71.1048 209.916 69.3145V4.66602C209.916 2.87565 210.73 1.98047 212.357 1.98047H216.85C218.477 1.98047 219.291 2.87565 219.291 4.66602V31.5703H253.373V4.66602C253.373 2.87565 254.187 1.98047 255.814 1.98047H260.307C261.934 1.98047 262.748 2.87565 262.748 4.66602V69.3145C262.748 71.1048 261.934 72 260.307 72H255.814C254.187 72 253.373 71.1048 253.373 69.3145V39.5781H219.291V69.3145C219.291 71.1048 218.477 72 216.85 72H212.357ZM275.541 36.9902C275.541 25.597 278.34 16.6777 283.939 10.2324C289.571 3.75456 297.676 0.515625 308.256 0.515625C318.835 0.515625 326.924 3.75456 332.523 10.2324C338.155 16.6777 340.971 25.597 340.971 36.9902C340.971 48.3835 338.155 57.319 332.523 63.7969C326.924 70.2422 318.835 73.4648 308.256 73.4648C297.676 73.4648 289.571 70.2422 283.939 63.7969C278.34 57.319 275.541 48.3835 275.541 36.9902ZM285.551 36.9902C285.551 46.1048 287.423 53.2012 291.166 58.2793C294.91 63.3249 300.606 65.8477 308.256 65.8477C315.906 65.8477 321.602 63.3249 325.346 58.2793C329.089 53.2012 330.961 46.1048 330.961 36.9902C330.961 27.8757 329.089 20.7956 325.346 15.75C321.602 10.6719 315.906 8.13281 308.256 8.13281C300.606 8.13281 294.91 10.6719 291.166 15.75C287.423 20.7956 285.551 27.8757 285.551 36.9902Z" fill="#EEEEEE"/>
</g>
<defs>
<filter id="filter0_d_2_39" x="0.837891" y="0.515625" width="344.133" height="80.9492" filterUnits="userSpaceOnUse" color-interpolation-filters="sRGB">
<feFlood flood-opacity="0" result="BackgroundImageFix"/>
<feColorMatrix in="SourceAlpha" type="matrix" values="0 0 0 0 0 0 0 0 0 0 0 0 0 0 0 0 0 0 127 0" result="hardAlpha"/>
<feOffset dy="4"/>
<feGaussianBlur stdDeviation="2"/>
<feComposite in2="hardAlpha" operator="out"/>
<feColorMatrix type="matrix" values="0 0 0 0 0 0 0 0 0 0 0 0 0 0 0 0 0 0 0.5 0"/>
<feBlend mode="normal" in2="BackgroundImageFix" result="effect1_dropShadow_2_39"/>
<feBlend mode="normal" in="SourceGraphic" in2="effect1_dropShadow_2_39" result="shape"/>
</filter>
</defs>
</svg>